<svg xmlns="http://www.w3.org/2000/svg" version="1.1" xmlns:xlink="http://www.w3.org/1999/xlink" xmlns:svgjs="http://svgjs.dev/svgjs" width="2000" height="2250" viewBox="0 0 2000 2250"><g transform="matrix(1,0,0,1,0.00003558488856469921,0)"><svg viewBox="0 0 320 360" data-background-color="#0c1d36" preserveAspectRatio="xMidYMid meet" height="2250" width="2000" xmlns="http://www.w3.org/2000/svg" xmlns:xlink="http://www.w3.org/1999/xlink"><g id="tight-bounds" transform="matrix(1,0,0,1,0.000005693582238563977,0)"><svg viewBox="0 0 320 360" height="360" width="320"><g><svg></svg></g><g><svg viewBox="0 0 320 360" height="360" width="320"><g><path transform="translate(-8.74414,11.24127) scale(3.37517,3.37517)" d="M89.9 29.89c-2.6-3.17-7.52-4.8-12.74-6.52-2.24-0.74-4.55-1.51-6.81-2.44-2.28-0.94-4.52-2.15-6.7-3.31-4.43-2.38-9.01-4.84-13.66-4.84-4.64 0-9.22 2.46-13.65 4.84-2.18 1.17-4.43 2.38-6.71 3.32-2.25 0.93-4.57 1.69-6.81 2.44-5.22 1.73-10.14 3.36-12.74 6.52-3.47 4.23-3.39 10.5-3.31 17.13 0.01 1 0.02 1.99 0.02 2.97 0 0.98-0.01 1.97-0.03 2.97-0.08 6.64-0.16 12.9 3.31 17.14 2.6 3.16 7.52 4.79 12.73 6.52 2.24 0.74 4.55 1.51 6.82 2.44 2.28 0.94 4.52 2.14 6.69 3.31 4.44 2.39 9.02 4.85 13.66 4.85 4.65 0 9.23-2.46 13.66-4.84 2.18-1.17 4.42-2.38 6.7-3.31 2.25-0.93 4.55-1.69 6.78-2.43 5.25-1.74 10.17-3.37 12.77-6.53 3.47-4.23 3.39-10.5 3.31-17.13-0.01-1.01-0.03-2-0.03-2.98 0-0.98 0.01-1.97 0.03-2.96 0.11-6.66 0.19-12.93-3.29-17.16zM93.12 27.25c-4.66-5.68-13.57-7.03-21.18-10.17-6.81-2.8-13.74-8.47-21.94-8.47-8.2 0-15.13 5.67-21.94 8.47-7.62 3.14-16.52 4.49-21.18 10.17-5.06 6.16-4.24 14.85-4.24 22.75 0 7.89-0.82 16.59 4.23 22.75 4.66 5.68 13.57 7.03 21.18 10.17 6.81 2.81 13.74 8.47 21.94 8.47 8.2 0 15.13-5.66 21.94-8.47 7.62-3.14 16.52-4.49 21.18-10.17 5.05-6.16 4.23-14.85 4.23-22.75 0.02-7.9 0.84-16.59-4.22-22.75zM94.4 52.94c0.09 6.88 0.17 13.35-3.58 17.92-2.82 3.43-7.9 5.12-13.28 6.9-2.24 0.74-4.53 1.5-6.73 2.41-2.22 0.91-4.43 2.1-6.57 3.25-4.58 2.46-9.29 4.99-14.24 4.99-4.95 0-9.66-2.53-14.22-4.98-2.15-1.16-4.37-2.35-6.59-3.26-2.23-0.92-4.52-1.68-6.74-2.41-5.39-1.78-10.47-3.47-13.28-6.9-3.74-4.56-3.66-11.04-3.58-17.9 0.01-1 0.03-1.98 0.03-2.96 0-0.98-0.01-1.96-0.02-2.96-0.09-6.86-0.17-13.34 3.58-17.9 2.82-3.43 7.9-5.11 13.28-6.9 2.23-0.74 4.52-1.5 6.74-2.41 2.22-0.92 4.44-2.11 6.59-3.26 4.56-2.45 9.28-4.99 14.22-4.99 4.94 0 9.66 2.53 14.22 4.98 2.15 1.16 4.37 2.35 6.59 3.26 2.22 0.92 4.52 1.67 6.73 2.41 5.38 1.78 10.47 3.47 13.28 6.9 3.75 4.57 3.67 11.04 3.58 17.9-0.01 1.01-0.03 1.99-0.03 2.96 0 0.98 0.01 1.96 0.02 2.95z" fill="#f9cc0b" fill-rule="nonzero" stroke="none" stroke-width="1" stroke-linecap="butt" stroke-linejoin="miter" stroke-miterlimit="10" stroke-dasharray="" stroke-dashoffset="0" font-family="none" font-weight="none" font-size="none" text-anchor="none" style="mix-blend-mode: normal" data-fill-palette-color="tertiary"></path></g><g transform="matrix(1,0,0,1,118.05014491391613,108)"><svg viewBox="0 0 83.89971017216774 144" height="144" width="83.89971017216774"><g><svg viewBox="0 0 83.89971017216774 144" height="144" width="83.89971017216774"><g><svg viewBox="0 0 156.4690318701143 268.55325892139854" height="144" width="83.89971017216774"><g transform="matrix(1,0,0,1,0,124.55325892139854)"><svg viewBox="0 0 156.4690318701143 144" height="144" width="156.4690318701143"><g id="textblocktransform"><svg viewBox="0 0 156.4690318701143 144" height="144" width="156.4690318701143" id="textblock"><g><svg viewBox="0 0 156.4690318701143 144" height="144" width="156.4690318701143"><g transform="matrix(1,0,0,1,0,0)"><svg width="156.4690318701143" viewBox="4.58 -33.27 45.67 42.040000000000006" height="144" data-palette-color="#0c1d36"><path d="M8.14-21.16L8.14-21.16 8.14 0 4.58 0 4.58-33.27 10.39-33.27 20.93-5.81 21.11-5.81 31.72-33.27 37.51-33.27 37.51 0 33.65 0 33.65-21.44Q33.65-25.28 33.97-29.45L33.97-29.45 33.77-29.45 22.4 0 19.29 0 8.01-29.47 7.84-29.47Q8.14-25.99 8.14-21.16ZM50.25-33.27L50.25-0.33Q50.25 4.02 48.05 6.4 45.85 8.77 41.78 8.77L41.78 8.77Q39.66 8.77 38.42 8.14L38.42 8.14 38.42 4.85Q40.04 5.31 41.78 5.31L41.78 5.31Q44.03 5.31 45.21 3.94 46.38 2.58 46.38 0L46.38 0 46.38-33.27 50.25-33.27Z" opacity="1" transform="matrix(1,0,0,1,0,0)" fill="#0c1d36" class="wordmark-text-0" data-fill-palette-color="quaternary" id="text-0"></path></svg></g></svg></g></svg></g></svg></g><g transform="matrix(1,0,0,1,29.885585087191828,0)"><svg viewBox="0 0 96.69786169573064 90.55831492139853" height="90.55831492139853" width="96.69786169573064"><g><svg xmlns="http://www.w3.org/2000/svg" xmlns:xlink="http://www.w3.org/1999/xlink" version="1.1" x="0" y="0" viewBox="1 9 126 118" style="enable-background:new 0 0 128 128;" xml:space="preserve" height="90.55831492139853" width="96.69786169573064" class="icon-icon-0" data-fill-palette-color="quaternary" id="icon-0"><g fill="#0c1d36" data-fill-palette-color="quaternary"><circle cx="64" cy="32" r="23" fill="#0c1d36" data-fill-palette-color="quaternary"></circle><g fill="#0c1d36" data-fill-palette-color="quaternary"><circle cx="63" cy="99" r="6.0" fill="#0c1d36" data-fill-palette-color="quaternary"></circle><path d="M115 117v-10l-15-38H28l-15 38v10H1v10h126v-10H115zM28 79h72l-5 38H33L28 79z" fill="#0c1d36" data-fill-palette-color="quaternary"></path></g></g></svg></g></svg></g><g></g></svg></g></svg></g></svg></g></svg></g><defs></defs></svg><rect width="320" height="360" fill="none" stroke="none" visibility="hidden"></rect></g></svg></g></svg>