<svg xmlns="http://www.w3.org/2000/svg" version="1.1" xmlns:xlink="http://www.w3.org/1999/xlink" xmlns:svgjs="http://svgjs.dev/svgjs" width="2000" height="732" viewBox="0 0 2000 732"><g transform="matrix(1,0,0,1,-1.2121212121212466,-0.05954957792744153)"><svg viewBox="0 0 396 145" data-background-color="#ffffff" preserveAspectRatio="xMidYMid meet" height="732" width="2000" xmlns="http://www.w3.org/2000/svg" xmlns:xlink="http://www.w3.org/1999/xlink"><g id="tight-bounds" transform="matrix(1,0,0,1,0.2400000000000091,0.011796022950107954)"><svg viewBox="0 0 395.52 144.97640795409978" height="144.97640795409978" width="395.52"><g><svg viewBox="0 0 578.6137432283576 212.0887492064197" height="144.97640795409978" width="395.52"><g transform="matrix(1,0,0,1,0,30.071559624767175)"><svg viewBox="0 0 395.52 151.94562995688534" height="151.94562995688534" width="395.52"><g id="textblocktransform"><svg viewBox="0 0 395.52 151.94562995688534" height="151.94562995688534" width="395.52" id="textblock"><g><svg viewBox="0 0 395.52 68.23497438621877" height="68.23497438621877" width="395.52"><g transform="matrix(1,0,0,1,0,0)"><svg width="395.52" viewBox="3.55 -36.9 217.3565350136623 37.5" height="68.23497438621877" data-palette-color="#0d5fa8"><g transform="matrix(1,0,0,1,0,0)"><g><svg width="10.436685013662341" viewBox="3.16 -36.36 63.85000000000001 36.87" height="6.028085309615318" data-palette-color="#0d5fa8" id="scriptelement" x="208.30834250683117" y="-10.393892654807658"><path d="M25.62-13.41L25.62-36.36 33.31-36.36 33.31-12.75Q33.31-8.77 31.42-5.79 29.53-2.81 26.14-1.15 22.75 0.51 18.24 0.51L18.24 0.51Q13.71 0.51 10.32-1.15 6.92-2.81 5.04-5.79 3.16-8.77 3.16-12.75L3.16-12.75 3.16-36.36 10.85-36.36 10.85-13.41Q10.85-11.33 11.76-9.71 12.68-8.1 14.35-7.17 16.02-6.25 18.24-6.25L18.24-6.25Q20.47-6.25 22.13-7.17 23.79-8.1 24.71-9.71 25.62-11.33 25.62-13.41L25.62-13.41ZM47.32 0L39.63 0 39.63-36.36 53.97-36.36Q58.11-36.36 61.02-34.79 63.94-33.22 65.47-30.44 67.01-27.66 67.01-24.04L67.01-24.04Q67.01-20.42 65.44-17.65 63.88-14.88 60.93-13.33 57.97-11.79 53.78-11.79L53.78-11.79 44.64-11.79 44.64-17.95 52.54-17.95Q54.76-17.95 56.2-18.72 57.65-19.5 58.37-20.87 59.09-22.25 59.09-24.04L59.09-24.04Q59.09-25.85 58.37-27.21 57.65-28.57 56.19-29.32 54.74-30.08 52.5-30.08L52.5-30.08 47.32-30.08 47.32 0Z" opacity="1" transform="matrix(1,0,0,1,0,0)" fill="#0d5fa8" class="undefined-123" data-fill-palette-color="primary" id="yy-123"></path></svg></g></g><path d="M206.147-7.38C206.147-11.456 209.451-14.76 213.527-14.76 217.602-14.76 220.907-11.456 220.907-7.38 220.907-3.304 217.602 0 213.527 0 209.451 0 206.147-3.304 206.147-7.38ZM213.527-0.4C217.382-0.4 220.507-3.525 220.507-7.38 220.507-11.235 217.382-14.36 213.527-14.36 209.672-14.36 206.547-11.235 206.547-7.38 206.547-3.525 209.672-0.4 213.527-0.4Z" fill="#0d5fa8" id="scriptcircle" data-fill-palette-color="primary"></path><path d="M3.55-36.4L9.05-36.4 9.05-12.2Q9.05-7.95 11.15-5.4 13.25-2.85 17.75-2.85L17.75-2.85Q22.4-2.85 24.78-5.65 27.15-8.45 27.15-12.9L27.15-12.9 27.15-36.4 31-36.4 31-12.9Q31-8.7 29.43-5.68 27.85-2.65 24.85-1.03 21.85 0.6 17.55 0.6L17.55 0.6Q11.3 0.6 7.8-2.65 4.3-5.9 4.3-12.2L4.3-12.2 4.3-33.1 3.55-36.4ZM39.65-33.1L38.9-36.4 49.8-36.4Q53.4-36.4 56.17-35.27 58.95-34.15 60.5-31.75 62.05-29.35 62.05-25.4L62.05-25.4Q62.05-21.75 60.4-19.3 58.75-16.85 56-15.63 53.25-14.4 49.85-14.4L49.85-14.4 44.3-14.4 44.3 0 39.65 0 39.65-33.1ZM49.8-32.95L44.3-32.95 44.3-17.8 49.75-17.8Q53.2-17.8 55.2-19.9 57.2-22 57.2-25.4L57.2-25.4Q57.2-28.95 55.3-30.95 53.4-32.95 49.8-32.95L49.8-32.95ZM65.14-36.4L70.05-36.4 76.14-13.85Q76.55-12.5 76.89-11.13 77.25-9.75 77.59-8L77.59-8Q77.94-9.6 78.25-10.88 78.55-12.15 78.89-13.4L78.89-13.4 85.09-36.4 88.8-36.4 94.89-13.65Q95.25-12.4 95.59-11.03 95.94-9.65 96.3-8L96.3-8Q96.65-9.6 96.94-10.85 97.25-12.1 97.59-13.3L97.59-13.3 103.84-36.4 107.75-36.4 97.8 0.25 93.94 0.25 87.59-23Q87.34-24 87.05-25.08 86.75-26.15 86.5-27.55L86.5-27.55Q86.19-26.15 85.92-25.03 85.64-23.9 85.34-22.85L85.34-22.85 79.09 0.25 75.25 0.25 65.14-36.4ZM125.94 0.55L125.94 0.55Q121.89 0.55 118.87-0.95 115.84-2.45 113.84-5.08 111.84-7.7 110.84-11.05 109.84-14.4 109.84-18.15L109.84-18.15Q109.84-21.9 110.82-25.28 111.79-28.65 113.79-31.28 115.79-33.9 118.84-35.4 121.89-36.9 125.99-36.9L125.99-36.9Q130.09-36.9 133.12-35.4 136.14-33.9 138.14-31.28 140.14-28.65 141.12-25.28 142.09-21.9 142.09-18.15L142.09-18.15Q142.09-14.4 141.09-11.03 140.09-7.65 138.09-5.05 136.09-2.45 133.07-0.95 130.04 0.55 125.94 0.55ZM125.99-2.85L125.99-2.85Q129.19-2.85 131.34-4.2 133.49-5.55 134.79-7.8 136.09-10.05 136.67-12.75 137.24-15.45 137.24-18.15L137.24-18.15Q137.24-20.85 136.67-23.55 136.09-26.25 134.79-28.48 133.49-30.7 131.32-32.05 129.14-33.4 125.99-33.4L125.99-33.4Q122.84-33.4 120.67-32.05 118.49-30.7 117.22-28.45 115.94-26.2 115.37-23.5 114.79-20.8 114.79-18.1L114.79-18.1Q114.79-15.4 115.37-12.73 115.94-10.05 117.22-7.8 118.49-5.55 120.67-4.2 122.84-2.85 125.99-2.85ZM148.64-33.1L147.94-36.4 158.79-36.4Q162.24-36.4 165.04-35.52 167.84-34.65 169.47-32.45 171.09-30.25 171.09-26.35L171.09-26.35Q171.09-24.35 170.14-22.5 169.19-20.65 167.62-19.28 166.04-17.9 164.14-17.3L164.14-17.3 174.34 0 168.94 0 159.54-16.35 153.29-16.35 153.29 0 148.64 0 148.64-33.1ZM158.79-32.95L153.29-32.95 153.29-19.75 157.29-19.75Q159.79-19.75 161.82-20.33 163.84-20.9 165.04-22.4 166.24-23.9 166.24-26.65L166.24-26.65Q166.24-28.8 165.19-30.18 164.14-31.55 162.44-32.25 160.74-32.95 158.79-32.95L158.79-32.95ZM178.24-33.1L177.54-36.4 182.89-36.4 182.89-20.15 197.34-36.4 202.19-36.4 187.84-20.2 203.09 0 197.29 0 182.89-18.95 182.89 0 178.24 0 178.24-33.1Z" opacity="1" transform="matrix(1,0,0,1,0,0)" fill="#0d5fa8" class="wordmark-text-0" data-fill-palette-color="primary" id="text-0"></path></svg></g></svg></g><g transform="matrix(1,0,0,1,0,100.45225401262073)"><svg viewBox="0 0 395.52 51.49337594426461" height="51.49337594426461" width="395.52"><path d="M395.52 0l-8.582 25.747 8.582 25.746h-395.52l8.582-25.746-8.582-25.747z" data-fill-palette-color="tertiary" opacity="1" fill="#181300"></path><g transform="matrix(1,0,0,1,43.50719999999998,16.10863981320098)"><svg width="308.5056" viewBox="5.44 -40.5 855.28 53.44" height="19.27609631786265" data-palette-color="#d6cb1a"><path d="M5.44 0L5.44-38.16 13.18-38.16 27.05-24.24 40.92-38.16 48.66-38.16 48.66 0 40.92 0 40.92-27.44 27.05-14.09 13.18-27.44 13.18 0 5.44 0ZM58.62-13.75L58.62-28.83 65.82-28.83 65.82-14.77Q65.82-12.77 66.26-11.12 66.7-9.47 67.76-8.3 68.82-7.13 70.59-6.48 72.36-5.83 75-5.83L75-5.83Q76.24-5.83 77.52-6.1 78.81-6.37 79.98-6.85 81.15-7.32 82.16-7.98 83.18-8.64 83.91-9.42L83.91-9.42 83.91-28.83 91.14-28.83 91.14 0 83.91 0 83.91-2.47Q81.25-0.88 78.56-0.2 75.88 0.49 73.46 0.49L73.46 0.49Q69.5 0.49 66.68-0.46 63.86-1.42 62.07-3.23 60.28-5.05 59.45-7.7 58.62-10.35 58.62-13.75L58.62-13.75ZM100.31 0L100.31-40.48 107.54-40.48 107.54-26.61Q109.81-27.86 112.6-28.59 115.4-29.32 118.48-29.32L118.48-29.32Q122.04-29.32 124.89-28.27 127.73-27.22 129.71-25.26 131.68-23.29 132.75-20.48 133.81-17.68 133.81-14.16L133.81-14.16 133.81 0 126.61 0 126.61-13.87Q126.61-15.92 125.95-17.61 125.29-19.31 124.02-20.53 122.75-21.75 120.93-22.42 119.11-23.1 116.82-23.1L116.82-23.1Q114.06-23.1 111.69-22.22 109.32-21.34 107.54-20L107.54-20 107.54 0 100.31 0ZM140.52-9.08L140.52-9.08Q140.52-11.16 141.42-12.87 142.33-14.58 144.13-15.81 145.94-17.04 148.64-17.71 151.34-18.38 154.92-18.38L154.92-18.38Q157.59-18.38 160.53-17.99 163.47-17.6 166.59-16.8L166.59-16.8Q166.47-18.16 165.76-19.32 165.06-20.48 163.8-21.33 162.54-22.17 160.77-22.63 159-23.1 156.76-23.1L156.76-23.1Q155.53-23.1 154.07-22.95 152.6-22.8 151.04-22.51 149.48-22.22 147.95-21.78 146.43-21.34 145.11-20.73L145.11-20.73 142.91-26.66Q144.55-27.25 146.42-27.73 148.28-28.22 150.24-28.58 152.19-28.93 154.14-29.13 156.1-29.32 157.93-29.32L157.93-29.32Q166.01-29.32 169.94-25.2 173.87-21.07 173.87-12.55L173.87-12.55 173.87 0 166.64 0 166.64-2.71Q165.52-2.05 164.19-1.46 162.86-0.88 161.3-0.44 159.73 0 157.94 0.26 156.14 0.51 154.14 0.51L154.14 0.51Q150.77 0.51 148.22-0.22 145.67-0.95 143.96-2.25 142.25-3.54 141.39-5.29 140.52-7.03 140.52-9.08ZM148.14-9.33L148.14-9.33Q148.14-8.62 148.5-7.97 148.87-7.32 149.68-6.82 150.48-6.32 151.74-6.02 153-5.71 154.78-5.71L154.78-5.71Q156.68-5.71 158.46-6.05 160.25-6.4 161.78-6.96 163.32-7.52 164.57-8.25 165.81-8.98 166.64-9.77L166.64-9.77 166.64-11.04Q164.98-11.5 163.36-11.82 161.74-12.13 160.26-12.32 158.78-12.5 157.48-12.57 156.17-12.65 155.19-12.65L155.19-12.65Q153.17-12.65 151.82-12.38 150.48-12.11 149.65-11.66 148.82-11.21 148.48-10.6 148.14-9.99 148.14-9.33ZM183.61 0L183.61-28.81 190.83-28.81 190.83-26.37Q193.54-28.03 196.12-28.67 198.7-29.32 201.16-29.32L201.16-29.32Q204.6-29.32 207.49-28.22 210.37-27.12 212.42-24.9L212.42-24.9Q214-26.12 215.54-26.97 217.08-27.81 218.62-28.33 220.16-28.86 221.74-29.09 223.33-29.32 225.01-29.32L225.01-29.32Q228.55-29.32 231.44-28.36 234.32-27.39 236.35-25.49 238.39-23.58 239.5-20.74 240.62-17.9 240.62-14.16L240.62-14.16 240.62 0 233.41 0 233.41-12.99Q233.41-15.36 232.74-17.22 232.07-19.09 230.86-20.37 229.65-21.66 227.98-22.33 226.31-23 224.31-23L224.31-23Q223.21-23 222.06-22.79 220.91-22.58 219.83-22.14 218.74-21.7 217.79-21.03 216.84-20.36 216.13-19.46L216.13-19.46 216.13 0 208.93 0 208.93-12.99Q208.93-15.36 208.25-17.22 207.58-19.09 206.37-20.37 205.17-21.66 203.47-22.33 201.77-23 199.75-23L199.75-23Q198.5-23 197.24-22.74 195.99-22.49 194.83-22.02 193.67-21.56 192.65-20.9 191.64-20.24 190.83-19.41L190.83-19.41 190.83 0 183.61 0ZM249.89 0L249.89-28.81 257.12-28.81 257.12-26.37Q259.83-28.03 262.4-28.67 264.98-29.32 267.44-29.32L267.44-29.32Q270.89-29.32 273.77-28.22 276.65-27.12 278.7-24.9L278.7-24.9Q280.29-26.12 281.82-26.97 283.36-27.81 284.9-28.33 286.44-28.86 288.02-29.09 289.61-29.32 291.3-29.32L291.3-29.32Q294.84-29.32 297.72-28.36 300.6-27.39 302.64-25.49 304.68-23.58 305.79-20.74 306.9-17.9 306.9-14.16L306.9-14.16 306.9 0 299.69 0 299.69-12.99Q299.69-15.36 299.02-17.22 298.35-19.09 297.14-20.37 295.93-21.66 294.26-22.33 292.59-23 290.59-23L290.59-23Q289.49-23 288.34-22.79 287.19-22.58 286.11-22.14 285.02-21.7 284.07-21.03 283.12-20.36 282.41-19.46L282.41-19.46 282.41 0 275.21 0 275.21-12.99Q275.21-15.36 274.54-17.22 273.86-19.09 272.66-20.37 271.45-21.66 269.75-22.33 268.05-23 266.03-23L266.03-23Q264.78-23 263.53-22.74 262.27-22.49 261.11-22.02 259.95-21.56 258.94-20.9 257.92-20.24 257.12-19.41L257.12-19.41 257.12 0 249.89 0ZM314.61-9.08L314.61-9.08Q314.61-11.16 315.51-12.87 316.42-14.58 318.22-15.81 320.03-17.04 322.73-17.71 325.42-18.38 329.01-18.38L329.01-18.38Q331.67-18.38 334.62-17.99 337.56-17.6 340.68-16.8L340.68-16.8Q340.56-18.16 339.85-19.32 339.15-20.48 337.89-21.33 336.63-22.17 334.86-22.63 333.09-23.1 330.84-23.1L330.84-23.1Q329.62-23.1 328.16-22.95 326.69-22.8 325.13-22.51 323.57-22.22 322.04-21.78 320.52-21.34 319.2-20.73L319.2-20.73 317-26.66Q318.64-27.25 320.51-27.73 322.37-28.22 324.33-28.58 326.28-28.93 328.23-29.13 330.19-29.32 332.02-29.32L332.02-29.32Q340.1-29.32 344.03-25.2 347.96-21.07 347.96-12.55L347.96-12.55 347.96 0 340.73 0 340.73-2.71Q339.61-2.05 338.28-1.46 336.95-0.88 335.39-0.44 333.82 0 332.03 0.26 330.23 0.51 328.23 0.51L328.23 0.51Q324.86 0.51 322.31-0.22 319.76-0.95 318.05-2.25 316.34-3.54 315.48-5.29 314.61-7.03 314.61-9.08ZM322.23-9.33L322.23-9.33Q322.23-8.62 322.59-7.97 322.96-7.32 323.76-6.82 324.57-6.32 325.83-6.02 327.08-5.71 328.87-5.71L328.87-5.71Q330.77-5.71 332.55-6.05 334.34-6.4 335.87-6.96 337.41-7.52 338.66-8.25 339.9-8.98 340.73-9.77L340.73-9.77 340.73-11.04Q339.07-11.5 337.45-11.82 335.82-12.13 334.35-12.32 332.87-12.5 331.56-12.57 330.26-12.65 329.28-12.65L329.28-12.65Q327.26-12.65 325.91-12.38 324.57-12.11 323.74-11.66 322.91-11.21 322.57-10.6 322.23-9.99 322.23-9.33ZM355.28-14.28L355.28-14.28Q355.28-17.72 356.57-20.5 357.87-23.27 360.15-25.23 362.43-27.2 365.57-28.26 368.71-29.32 372.37-29.32L372.37-29.32Q373.93-29.32 375.46-29.13 376.98-28.93 378.39-28.59 379.79-28.25 381.02-27.77 382.26-27.29 383.21-26.73L383.21-26.73 383.21-40.5 390.44-40.5 390.44 0 383.21 0 383.21-2.71Q382.26-2.05 380.96-1.46 379.67-0.88 378.18-0.44 376.69 0 375.09 0.26 373.49 0.51 371.93 0.51L371.93 0.51Q368.27 0.51 365.2-0.56 362.14-1.64 359.94-3.59 357.75-5.54 356.51-8.26 355.28-10.99 355.28-14.28ZM362.87-14.28L362.87-14.28Q362.87-12.55 363.57-11.01 364.26-9.47 365.57-8.31 366.88-7.15 368.72-6.48 370.56-5.81 372.86-5.81L372.86-5.81Q374.32-5.81 375.79-6.09 377.25-6.37 378.61-6.88 379.96-7.4 381.15-8.13 382.33-8.86 383.21-9.77L383.21-9.77 383.21-19.75Q382.11-20.63 380.89-21.24 379.67-21.85 378.4-22.24 377.13-22.63 375.84-22.81 374.54-23 373.32-23L373.32-23Q370.83-23 368.89-22.33 366.95-21.66 365.62-20.48 364.29-19.31 363.58-17.72 362.87-16.14 362.87-14.28ZM395.83 12.94L392.83 6.32Q394.51 5.3 395.72 4.17 396.93 3.05 397.71 1.7 398.49 0.34 398.86-1.33 399.22-3 399.22-5.13L399.22-5.13 399.22-38.16 406.96-38.16 406.96-6.52Q406.96-3.98 406.74-1.89 406.52 0.2 406.02 1.94 405.52 3.69 404.68 5.15 403.84 6.62 402.6 7.93 401.37 9.25 399.7 10.47 398.03 11.69 395.83 12.94L395.83 12.94ZM414.58-9.08L414.58-9.08Q414.58-11.16 415.48-12.87 416.38-14.58 418.19-15.81 420-17.04 422.69-17.71 425.39-18.38 428.98-18.38L428.98-18.38Q431.64-18.38 434.58-17.99 437.53-17.6 440.65-16.8L440.65-16.8Q440.53-18.16 439.82-19.32 439.11-20.48 437.86-21.33 436.6-22.17 434.83-22.63 433.06-23.1 430.81-23.1L430.81-23.1Q429.59-23.1 428.13-22.95 426.66-22.8 425.1-22.51 423.54-22.22 422.01-21.78 420.49-21.34 419.17-20.73L419.17-20.73 416.97-26.66Q418.61-27.25 420.47-27.73 422.34-28.22 424.29-28.58 426.25-28.93 428.2-29.13 430.15-29.32 431.98-29.32L431.98-29.32Q440.07-29.32 444-25.2 447.93-21.07 447.93-12.55L447.93-12.55 447.93 0 440.7 0 440.7-2.71Q439.58-2.05 438.25-1.46 436.92-0.88 435.35-0.44 433.79 0 432 0.26 430.2 0.51 428.2 0.51L428.2 0.51Q424.83 0.51 422.28-0.22 419.73-0.95 418.02-2.25 416.31-3.54 415.44-5.29 414.58-7.03 414.58-9.08ZM422.19-9.33L422.19-9.33Q422.19-8.62 422.56-7.97 422.93-7.32 423.73-6.82 424.54-6.32 425.8-6.02 427.05-5.71 428.83-5.71L428.83-5.71Q430.74-5.71 432.52-6.05 434.3-6.4 435.84-6.96 437.38-7.52 438.62-8.25 439.87-8.98 440.7-9.77L440.7-9.77 440.7-11.04Q439.04-11.5 437.42-11.82 435.79-12.13 434.32-12.32 432.84-12.5 431.53-12.57 430.23-12.65 429.25-12.65L429.25-12.65Q427.22-12.65 425.88-12.38 424.54-12.11 423.71-11.66 422.88-11.21 422.54-10.6 422.19-9.99 422.19-9.33ZM457.67 0L457.67-28.81 464.89-28.81 464.89-26.37Q467.6-28.03 470.18-28.67 472.75-29.32 475.22-29.32L475.22-29.32Q478.66-29.32 481.54-28.22 484.42-27.12 486.47-24.9L486.47-24.9Q488.06-26.12 489.6-26.97 491.14-27.81 492.68-28.33 494.21-28.86 495.8-29.09 497.39-29.32 499.07-29.32L499.07-29.32Q502.61-29.32 505.49-28.36 508.37-27.39 510.41-25.49 512.45-23.58 513.56-20.74 514.67-17.9 514.67-14.16L514.67-14.16 514.67 0 507.47 0 507.47-12.99Q507.47-15.36 506.8-17.22 506.13-19.09 504.92-20.37 503.71-21.66 502.04-22.33 500.37-23 498.36-23L498.36-23Q497.27-23 496.12-22.79 494.97-22.58 493.88-22.14 492.8-21.7 491.85-21.03 490.89-20.36 490.18-19.46L490.18-19.46 490.18 0 482.98 0 482.98-12.99Q482.98-15.36 482.31-17.22 481.64-19.09 480.43-20.37 479.22-21.66 477.53-22.33 475.83-23 473.8-23L473.8-23Q472.56-23 471.3-22.74 470.04-22.49 468.88-22.02 467.72-21.56 466.71-20.9 465.7-20.24 464.89-19.41L464.89-19.41 464.89 0 457.67 0ZM521.77-3.37L524.9-8.84Q527.83-7.08 531.34-6.25 534.86-5.42 538.55-5.42L538.55-5.42Q541.04-5.42 542.7-5.76 544.36-6.1 545.36-6.64 546.36-7.18 546.77-7.86 547.19-8.54 547.19-9.25L547.19-9.25Q547.19-10.28 546.3-11.01 545.41-11.74 543.36-11.74L543.36-11.74Q542.4-11.74 541.31-11.62 540.21-11.5 539-11.36 537.79-11.23 536.48-11.11 535.18-10.99 533.83-10.99L533.83-10.99Q530.91-10.99 528.84-11.62 526.78-12.26 525.49-13.35 524.19-14.45 523.61-15.95 523.02-17.46 523.02-19.19L523.02-19.19Q523.02-21.39 524.04-23.24 525.07-25.1 526.97-26.45 528.88-27.81 531.58-28.56 534.27-29.32 537.59-29.32L537.59-29.32Q539.33-29.32 541.22-29.11 543.11-28.91 544.94-28.56 546.77-28.22 548.46-27.77 550.14-27.32 551.44-26.81L551.44-26.81 549.17-21.19Q546.41-22.22 543.66-22.81 540.91-23.41 538.01-23.41L538.01-23.41Q535.98-23.41 534.58-23.11 533.18-22.8 532.3-22.3 531.42-21.8 531.01-21.15 530.61-20.51 530.61-19.8L530.61-19.8Q530.61-19.29 530.82-18.87 531.03-18.46 531.5-18.15 531.98-17.85 532.75-17.69 533.52-17.53 534.64-17.53L534.64-17.53Q535.67-17.53 536.81-17.65 537.96-17.77 539.21-17.91 540.45-18.04 541.78-18.16 543.11-18.29 544.5-18.29L544.5-18.29Q547.09-18.29 549.03-17.68 550.97-17.07 552.24-15.97 553.51-14.87 554.15-13.38 554.78-11.89 554.78-10.13L554.78-10.13Q554.78-7.86 553.73-5.91 552.68-3.96 550.61-2.53 548.53-1.1 545.44-0.29 542.36 0.51 538.3 0.51L538.3 0.51Q535.81 0.51 533.49 0.21 531.17-0.1 529.07-0.62 526.97-1.15 525.13-1.86 523.29-2.56 521.77-3.37L521.77-3.37ZM561.27 0L561.27-40.48 568.5-40.48 568.5-26.61Q570.77-27.86 573.57-28.59 576.36-29.32 579.44-29.32L579.44-29.32Q583-29.32 585.85-28.27 588.69-27.22 590.67-25.26 592.65-23.29 593.71-20.48 594.77-17.68 594.77-14.16L594.77-14.16 594.77 0 587.57 0 587.57-13.87Q587.57-15.92 586.91-17.61 586.25-19.31 584.98-20.53 583.71-21.75 581.89-22.42 580.07-23.1 577.78-23.1L577.78-23.1Q575.02-23.1 572.65-22.22 570.28-21.34 568.5-20L568.5-20 568.5 0 561.27 0ZM601.48-9.08L601.48-9.08Q601.48-11.16 602.38-12.87 603.29-14.58 605.09-15.81 606.9-17.04 609.6-17.71 612.3-18.38 615.89-18.38L615.89-18.38Q618.55-18.38 621.49-17.99 624.43-17.6 627.56-16.8L627.56-16.8Q627.43-18.16 626.73-19.32 626.02-20.48 624.76-21.33 623.5-22.17 621.73-22.63 619.96-23.1 617.72-23.1L617.72-23.1Q616.5-23.1 615.03-22.95 613.57-22.8 612-22.51 610.44-22.22 608.92-21.78 607.39-21.34 606.07-20.73L606.07-20.73 603.87-26.66Q605.51-27.25 607.38-27.73 609.24-28.22 611.2-28.58 613.15-28.93 615.1-29.13 617.06-29.32 618.89-29.32L618.89-29.32Q626.97-29.32 630.9-25.2 634.83-21.07 634.83-12.55L634.83-12.55 634.83 0 627.6 0 627.6-2.71Q626.48-2.05 625.15-1.46 623.82-0.88 622.26-0.44 620.7 0 618.9 0.26 617.11 0.51 615.1 0.51L615.1 0.51Q611.74 0.51 609.18-0.22 606.63-0.95 604.92-2.25 603.21-3.54 602.35-5.29 601.48-7.03 601.48-9.08ZM609.1-9.33L609.1-9.33Q609.1-8.62 609.46-7.97 609.83-7.32 610.64-6.82 611.44-6.32 612.7-6.02 613.96-5.71 615.74-5.71L615.74-5.71Q617.64-5.71 619.43-6.05 621.21-6.4 622.75-6.96 624.28-7.52 625.53-8.25 626.77-8.98 627.6-9.77L627.6-9.77 627.6-11.04Q625.94-11.5 624.32-11.82 622.7-12.13 621.22-12.32 619.74-12.5 618.44-12.57 617.13-12.65 616.15-12.65L616.15-12.65Q614.13-12.65 612.78-12.38 611.44-12.11 610.61-11.66 609.78-11.21 609.44-10.6 609.1-9.99 609.1-9.33ZM648.18-32.74L648.18-32.74Q647.11-32.74 646.24-33.04 645.38-33.35 644.76-33.87 644.15-34.4 643.82-35.1 643.5-35.79 643.5-36.57L643.5-36.57Q643.5-37.38 643.82-38.07 644.15-38.77 644.76-39.28 645.38-39.79 646.24-40.1 647.11-40.41 648.18-40.41L648.18-40.41Q649.28-40.41 650.15-40.1 651.01-39.79 651.63-39.28 652.24-38.77 652.57-38.07 652.89-37.38 652.89-36.57L652.89-36.57Q652.89-35.79 652.57-35.1 652.24-34.4 651.63-33.87 651.01-33.35 650.15-33.04 649.28-32.74 648.18-32.74ZM644.57 0L644.57-28.81 651.8-28.81 651.8 0 644.57 0ZM658.82-14.28L658.82-14.28Q658.82-17.72 660.12-20.5 661.41-23.27 663.7-25.23 665.98-27.2 669.12-28.26 672.25-29.32 675.91-29.32L675.91-29.32Q677.48-29.32 679-29.13 680.53-28.93 681.93-28.59 683.34-28.25 684.57-27.77 685.8-27.29 686.75-26.73L686.75-26.73 686.75-40.5 693.98-40.5 693.98 0 686.75 0 686.75-2.71Q685.8-2.05 684.51-1.46 683.21-0.88 681.73-0.44 680.24 0 678.64 0.26 677.04 0.51 675.48 0.51L675.48 0.51Q671.81 0.51 668.75-0.56 665.69-1.64 663.49-3.59 661.29-5.54 660.06-8.26 658.82-10.99 658.82-14.28ZM666.42-14.28L666.42-14.28Q666.42-12.55 667.11-11.01 667.81-9.47 669.12-8.31 670.42-7.15 672.26-6.48 674.11-5.81 676.4-5.81L676.4-5.81Q677.87-5.81 679.33-6.09 680.8-6.37 682.15-6.88 683.51-7.4 684.69-8.13 685.88-8.86 686.75-9.77L686.75-9.77 686.75-19.75Q685.66-20.63 684.44-21.24 683.21-21.85 681.94-22.24 680.68-22.63 679.38-22.81 678.09-23 676.87-23L676.87-23Q674.38-23 672.44-22.33 670.49-21.66 669.16-20.48 667.83-19.31 667.13-17.72 666.42-16.14 666.42-14.28ZM703.72 0L703.72-38.16 711.46-38.16 711.46-18.41 731.6-38.16 741.51-38.16 722.71-19.95 741.51 0 731.21 0 717.15-14.55 711.46-9.06 711.46 0 703.72 0ZM744.42 0L744.42-40.48 751.64-40.48 751.64-26.61Q753.91-27.86 756.71-28.59 759.5-29.32 762.58-29.32L762.58-29.32Q766.14-29.32 768.99-28.27 771.83-27.22 773.81-25.26 775.79-23.29 776.85-20.48 777.91-17.68 777.91-14.16L777.91-14.16 777.91 0 770.71 0 770.71-13.87Q770.71-15.92 770.05-17.61 769.39-19.31 768.12-20.53 766.85-21.75 765.03-22.42 763.21-23.1 760.92-23.1L760.92-23.1Q758.16-23.1 755.79-22.22 753.42-21.34 751.64-20L751.64-20 751.64 0 744.42 0ZM784.62-9.08L784.62-9.08Q784.62-11.16 785.53-12.87 786.43-14.58 788.24-15.81 790.04-17.04 792.74-17.71 795.44-18.38 799.03-18.38L799.03-18.38Q801.69-18.38 804.63-17.99 807.57-17.6 810.7-16.8L810.7-16.8Q810.58-18.16 809.87-19.32 809.16-20.48 807.9-21.33 806.64-22.17 804.87-22.63 803.1-23.1 800.86-23.1L800.86-23.1Q799.64-23.1 798.17-22.95 796.71-22.8 795.15-22.51 793.58-22.22 792.06-21.78 790.53-21.34 789.21-20.73L789.21-20.73 787.02-26.66Q788.65-27.25 790.52-27.73 792.39-28.22 794.34-28.58 796.29-28.93 798.25-29.13 800.2-29.32 802.03-29.32L802.03-29.32Q810.11-29.32 814.04-25.2 817.97-21.07 817.97-12.55L817.97-12.55 817.97 0 810.75 0 810.75-2.71Q809.62-2.05 808.29-1.46 806.96-0.88 805.4-0.44 803.84 0 802.04 0.26 800.25 0.51 798.25 0.51L798.25 0.51Q794.88 0.51 792.33-0.22 789.77-0.95 788.07-2.25 786.36-3.54 785.49-5.29 784.62-7.03 784.62-9.08ZM792.24-9.33L792.24-9.33Q792.24-8.62 792.61-7.97 792.97-7.32 793.78-6.82 794.58-6.32 795.84-6.02 797.1-5.71 798.88-5.71L798.88-5.71Q800.79-5.71 802.57-6.05 804.35-6.4 805.89-6.96 807.43-7.52 808.67-8.25 809.92-8.98 810.75-9.77L810.75-9.77 810.75-11.04Q809.09-11.5 807.46-11.82 805.84-12.13 804.36-12.32 802.88-12.5 801.58-12.57 800.27-12.65 799.3-12.65L799.3-12.65Q797.27-12.65 795.93-12.38 794.58-12.11 793.75-11.66 792.92-11.21 792.58-10.6 792.24-9.99 792.24-9.33ZM827.52 0L827.52-28.81 834.74-28.81 834.74-26.37Q837.62-28 840.25-28.66 842.87-29.32 845.39-29.32L845.39-29.32Q848.68-29.32 851.49-28.36 854.3-27.39 856.35-25.49 858.4-23.58 859.56-20.74 860.72-17.9 860.72-14.16L860.72-14.16 860.72 0 853.52 0 853.52-12.99Q853.52-15.36 852.85-17.22 852.17-19.09 850.92-20.37 849.66-21.66 847.87-22.33 846.07-23 843.85-23L843.85-23Q842.68-23 841.44-22.75 840.21-22.51 839.03-22.06 837.84-21.61 836.74-20.94 835.65-20.26 834.74-19.41L834.74-19.41 834.74 0 827.52 0Z" opacity="1" transform="matrix(1,0,0,1,0,0)" fill="#d6cb1a" class="slogan-text-1" data-fill-palette-color="quaternary" id="text-1"></path></svg></g></svg></g></svg></g></svg></g><g transform="matrix(1,0,0,1,411.62863981320095,0)"><svg viewBox="0 0 166.98510341515663 212.0887492064197" height="212.0887492064197" width="166.98510341515663"><g><svg xmlns="http://www.w3.org/2000/svg" xmlns:xlink="http://www.w3.org/1999/xlink" xml:space="preserve" version="1.1" style="shape-rendering:geometricPrecision;text-rendering:geometricPrecision;image-rendering:optimizeQuality;" viewBox="42 8.546257835114915 249.15541752799936 316.45374216488506" x="0" y="0" fill-rule="evenodd" clip-rule="evenodd" height="212.0887492064197" width="166.98510341515663" class="icon-icon-0" data-fill-palette-color="accent" id="icon-0"><g fill="#0c733b" data-fill-palette-color="accent"><path class="" d="M60 256l-10-2c-5 11-8 21-8 26 1 9 10 23 18 32l0-56z m13-74l187 0c4 0 7 3 7 7l0 129c0 4-3 7-7 7l-187 0c-3 0-6-3-6-7l0-129c0-4 3-7 6-7z m84 55l23 0c3 0 6 3 6 6l0 21c0 3-3 6-6 6l-23 0c-4 0-6-3-6-6l0-21c0-3 2-6 6-6z m52-121c-7 27-26 46-40 46-14 0-32-19-39-46-7 0-13-10-13-23 0-5 1-10 3-13-2-8-2-17-1-25-1-2-5-2-8-7 4 2 11 1 12-1-2 0-5 0-11-6 12 2 24-13 30-18 19-15 41-17 49-12 7 4 13 11 17 20l6-5c0 0 1 8-3 10 5 2 13 6 11 23 0 7-2 15-4 22 1 4 2 8 2 12 0 12-5 21-11 23z m-73 41c1 7 3 14 6 20l-46 0c8-8 20-15 40-20z m137 72c2 5 5 10 7 16l-7 1 0-17z m-76-72c0 7-2 14-6 20l46 0c-8-8-20-15-40-20z m76 99l11-2c4 11 8 21 7 26 0 9-9 23-18 32l0-56z m-213-27c-2 5-4 10-6 16l6 1 0-17z" fill="#0c733b" data-fill-palette-color="accent"></path></g></svg></g></svg></g></svg></g><defs></defs></svg><rect width="395.52" height="144.97640795409978" fill="none" stroke="none" visibility="hidden"></rect></g></svg></g></svg>